<svg xmlns="http://www.w3.org/2000/svg" width="16" height="16" viewBox="0 0 16 16"><defs><style>.a{fill:#ffb74d;}</style></defs><path class="a" d="M11.375,3.375a8,8,0,1,0,8,8A8,8,0,0,0,11.375,3.375Zm0,14.4a6.4,6.4,0,1,1,6.4-6.4A6.419,6.419,0,0,1,11.375,17.775Zm2.8-7.2a1.2,1.2,0,1,0-1.2-1.2A1.178,1.178,0,0,0,14.175,10.575Zm-5.6,0a1.2,1.2,0,1,0-1.2-1.2A1.178,1.178,0,0,0,8.575,10.575Zm2.8,5.2a4.359,4.359,0,0,0,4.08-2.8H7.295A4.359,4.359,0,0,0,11.375,15.775Z" transform="translate(-3.375 -3.375)"/></svg>