<svg xmlns="http://www.w3.org/2000/svg" width="20" height="16" viewBox="0 0 20 16"><defs><style>.a{opacity:0.37;}</style></defs><path class="a" d="M19.807,14.316l-2.832-2.189A.939.939,0,0,0,17,12a.976.976,0,0,0-.269-.678C16.127,10.672,15,9.7,15,6.5a4.935,4.935,0,0,0-4-4.849V1A1,1,0,1,0,9,1v.651a5.02,5.02,0,0,0-3.05,1.955L1.421.105a.5.5,0,0,0-.7.088L.105.983a.5.5,0,0,0,.088.7l18.386,14.21a.5.5,0,0,0,.7-.088l.614-.79A.5.5,0,0,0,19.807,14.316ZM4.913,7.861a5.307,5.307,0,0,1-1.644,3.461A.976.976,0,0,0,3,12a1,1,0,0,0,1,1h7.56ZM10,16a2,2,0,0,0,2-2H8A2,2,0,0,0,10,16Z" transform="translate(0)"/></svg>