<svg xmlns="http://www.w3.org/2000/svg" xmlns:xlink="http://www.w3.org/1999/xlink" width="1366" height="768" viewBox="0 0 1366 768"><defs><style>.a{fill:#fde6a9;}.b{clip-path:url(#a);}.c{fill:#ef6c00;}.d{fill:#ffb74d;}.e{fill:#fff;}.f{fill:#ffcf4d;}</style><clipPath id="a"><rect class="a" width="1366" height="768" transform="translate(0 792)"/></clipPath></defs><g class="b" transform="translate(0 -792)"><rect class="a" width="1366" height="768" transform="translate(0 792)"/><circle class="c" cx="85.5" cy="85.5" r="85.5" transform="translate(299 826)"/><circle class="c" cx="85.5" cy="85.5" r="85.5" transform="translate(-85 1475)"/><circle class="c" cx="85.5" cy="85.5" r="85.5" transform="translate(1281 707)"/><circle class="c" cx="85.5" cy="85.5" r="85.5" transform="translate(898 1366)"/><circle class="d" cx="85.5" cy="85.5" r="85.5" transform="translate(1069 994)"/><circle class="d" cx="95.5" cy="95.5" r="95.5" transform="translate(67 1260)"/><circle class="e" cx="52.5" cy="52.5" r="52.5" transform="translate(216 1113)"/><circle class="e" cx="52.5" cy="52.5" r="52.5" transform="translate(1031 821)"/><circle class="f" cx="26.5" cy="26.5" r="26.5" transform="translate(125 1003)"/><circle class="f" cx="26.5" cy="26.5" r="26.5" transform="translate(1228 1303)"/></g></svg>