<svg xmlns="http://www.w3.org/2000/svg" width="14.18" height="16" viewBox="0 0 14.18 16"><defs><style>.a{opacity:0.65;}</style></defs><path class="a" d="M7.09,16a2.013,2.013,0,0,0,2.025-2H5.065A2.013,2.013,0,0,0,7.09,16Zm6.817-4.678C13.3,10.673,12.151,9.7,12.151,6.5A4.952,4.952,0,0,0,8.1,1.651V1A1.012,1.012,0,0,0,6.078,1v.651A4.952,4.952,0,0,0,2.028,6.5c0,3.2-1.144,4.173-1.756,4.822A.97.97,0,0,0,0,12a1.007,1.007,0,0,0,1.016,1H13.164a1.007,1.007,0,0,0,1.016-1,.969.969,0,0,0-.273-.678Z" transform="translate(0)"/></svg>