<svg xmlns="http://www.w3.org/2000/svg" width="72" height="72" viewBox="0 0 72 72"><defs><style>.a{opacity:0.439;}</style></defs><path class="a" d="M36,.562a36,36,0,1,0,36,36A35.994,35.994,0,0,0,36,.562ZM36,14.5A12.774,12.774,0,1,1,23.226,27.272,12.774,12.774,0,0,1,36,14.5Zm0,49.935a27.817,27.817,0,0,1-21.266-9.9,16.185,16.185,0,0,1,14.3-8.681,3.552,3.552,0,0,1,1.031.16,19.219,19.219,0,0,0,5.937,1,19.147,19.147,0,0,0,5.937-1,3.552,3.552,0,0,1,1.031-.16,16.185,16.185,0,0,1,14.3,8.681A27.817,27.817,0,0,1,36,64.433Z" transform="translate(0 -0.563)"/></svg>