<svg xmlns="http://www.w3.org/2000/svg" xmlns:xlink="http://www.w3.org/1999/xlink" width="360" height="760" viewBox="0 0 360 760"><defs><style>.a,.e,.j{fill:#fff;}.a{stroke:#707070;}.b{clip-path:url(#a);}.c{fill:#fff6dd;}.d{font-size:15px;font-family:Poppins-ExtraBold, Poppins;font-weight:800;opacity:0.65;}.e{stroke-linecap:square;stroke-linejoin:round;}.f{fill:#ffcb1f;}.g{fill:#fde6a9;}.h{fill:#ef6c00;}.i{fill:#ffb74d;}.k{fill:#ffcf4d;}.l,.m{stroke:none;}.m{fill:#ffcb1f;}</style><clipPath id="a"><rect class="a" width="360" height="760"/></clipPath></defs><g class="b"><rect class="c" width="360" height="760"/><g transform="translate(-4788 520)"><text class="d" transform="translate(4810 -480)"><tspan x="0" y="0">Anychat</tspan></text><g transform="translate(4888.071 -496)"><g class="e"><path class="l" d="M -2.061914682388306 24.51689910888672 L -1.460034728050232 21.9618091583252 L -0.1117253303527832 16.23803329467773 C -0.9097576141357422 14.57549858093262 -1.329254746437073 12.73503112792969 -1.329254746437073 10.87903881072998 C -1.329254746437073 7.572479248046875 -0.04159477725625038 4.463829040527344 2.29653525352478 2.125739336013794 C 4.634665012359619 -0.2123507708311081 7.743375301361084 -1.500000834465027 11.05000495910645 -1.500000834465027 C 14.35655498504639 -1.500000834465027 17.46519470214844 -0.2123507708311081 19.80330467224121 2.125749111175537 C 22.14140510559082 4.463849067687988 23.42905616760254 7.57249927520752 23.42905616760254 10.87903881072998 C 23.42905616760254 14.18567943572998 22.14140510559082 17.29438972473145 19.80331611633301 19.63251876831055 C 17.4652156829834 21.97064971923828 14.35656547546387 23.25830841064453 11.05000495910645 23.25830841064453 C 9.226825714111328 23.25830841064453 7.417271614074707 22.85310935974121 5.777494430541992 22.08185577392578 L 0.4449552297592163 23.73822975158691 L -2.061914682388306 24.51689910888672 Z"/><path class="m" d="M 5.2227783271519e-06 22.30573844909668 L 5.910065174102783 20.46997833251953 C 7.44065523147583 21.29187965393066 9.191044807434082 21.75830841064453 11.05000495910645 21.75830841064453 C 17.05830574035645 21.75830841064453 21.92905616760254 16.88755989074707 21.92905616760254 10.87903881072998 C 21.92905616760254 4.870748996734619 17.05830574035645 -7.754516673230682e-07 11.05000495910645 -7.754516673230682e-07 C 5.041495323181152 -7.754516673230682e-07 0.1707452237606049 4.870748996734619 0.1707452237606049 10.87903881072998 C 0.1707452237606049 12.74973964691162 0.6426752209663391 14.50973892211914 1.474285244941711 16.04719924926758 L 5.2227783271519e-06 22.30573844909668 M 0.000299519655527547 25.3057975769043 C -0.7484769225120544 25.3057975769043 -1.482465505599976 25.02528953552246 -2.045984745025635 24.49980926513672 C -2.833344697952271 23.76558876037598 -3.166914701461792 22.66576957702637 -2.920074701309204 21.61787986755371 L -1.689262866973877 16.39289665222168 C -2.437666893005371 14.66110992431641 -2.829254865646362 12.7771520614624 -2.829254865646362 10.87903881072998 C -2.829254865646362 7.171809196472168 -1.385564804077148 3.686479330062866 1.235875248908997 1.065079212188721 C 3.857315301895142 -1.556330800056458 7.342705249786377 -3.000000715255737 11.05000495910645 -3.000000715255737 C 14.75721549987793 -3.000000715255737 18.24254608154297 -1.556320786476135 20.86396598815918 1.065089225769043 C 23.48537445068359 3.686499118804932 24.92905616760254 7.171829223632812 24.92905616760254 10.87903881072998 C 24.92905616760254 14.58633899688721 23.48538589477539 18.07172966003418 20.86397552490234 20.69318008422852 C 18.24257469177246 23.31461906433105 14.75723552703857 24.75830841064453 11.05000495910645 24.75830841064453 C 9.206780433654785 24.75830841064453 7.375379085540771 24.3885498046875 5.68460750579834 23.68140029907227 L 0.8899152278900146 25.17070960998535 C 0.5976188778877258 25.26150131225586 0.2977411448955536 25.3057975769043 0.000299519655527547 25.3057975769043 Z"/></g><circle class="f" cx="1.956" cy="1.956" r="1.956" transform="translate(3.349 9.29)"/><circle class="f" cx="1.956" cy="1.956" r="1.956" transform="translate(8.972 9.29)"/><circle class="f" cx="1.956" cy="1.956" r="1.956" transform="translate(14.595 9.29)"/></g></g><rect class="g" width="1366" height="768"/><circle class="h" cx="85.5" cy="85.5" r="85.5" transform="translate(299 34)"/><circle class="h" cx="85.5" cy="85.5" r="85.5" transform="translate(-85 683)"/><circle class="i" cx="95.5" cy="95.5" r="95.5" transform="translate(67 468)"/><circle class="j" cx="52.5" cy="52.5" r="52.5" transform="translate(216 321)"/><circle class="k" cx="26.5" cy="26.5" r="26.5" transform="translate(125 211)"/></g></svg>